<?xml version="1.0" encoding="UTF-8" standalone="no"?>
<svg width="90px" height="70px" viewBox="0 0 90 70" version="1.1" xmlns="http://www.w3.org/2000/svg" xmlns:xlink="http://www.w3.org/1999/xlink">
    <!-- Generator: Sketch 42 (36781) - http://www.bohemiancoding.com/sketch -->
    <title>OZ-Logo</title>
    <desc>Created with Sketch.</desc>
    <defs></defs>
    <g id="Sketch-02---Refined" stroke="none" stroke-width="1" fill="none" fill-rule="evenodd">
        <g id="Featured-Show-&gt;1280-ENG" transform="translate(-80.000000, -31.000000)" fill="#FFFFFF">
            <g id="OZ-Logo" transform="translate(80.000000, 31.000000)">
                <path d="M59.3681538,0.944307692 L59.3681538,1.08415385 C59.3681538,1.08415385 57.2538462,2.18630769 55.6393846,5.92615385 C54.4873846,8.59153846 54.1412308,13.5789231 54.1412308,13.5789231 L54.0013846,13.5789231 L54.0013846,0.948461538 L59.3681538,0.944307692" id="Fill-1"></path>
                <path d="M32.0593846,50.9690769 C33.4093846,49.9555385 34.5669231,48.7689231 35.4641538,47.3081538 C38.9963077,41.5855385 39.0669231,30.2801538 39.0669231,26.6773846 C39.0669231,23.0732308 38.9963077,11.9783077 35.4641538,6.04246154 C34.0850769,3.73015385 32.0081538,1.87476923 29.5283077,0.936 L29.5283077,0.797538462 C39.7135385,3.14307692 49.1026154,12.8395385 49.1026154,26.6773846 C49.1026154,38.5338462 40.3892308,47.3538462 32.0593846,51.1075385 L32.0593846,50.9690769" id="Fill-2"></path>
                <path d="M17.7756923,51.1075385 C9.44861538,47.3538462 0.807230769,38.5338462 0.807230769,26.6773846 C0.807230769,12.8395385 10.1963077,3.14307692 20.3801538,0.797538462 L20.3801538,0.936 C17.9030769,1.87476923 15.8233846,3.73015385 14.4443077,6.04246154 C10.9121538,11.9783077 10.8387692,23.0732308 10.8387692,26.6773846 C10.8387692,30.2801538 10.9121538,41.5855385 14.4443077,47.3081538 C15.3304615,48.7509231 16.4478462,49.9596923 17.7756923,50.9690769 L17.7756923,51.1075385" id="Fill-3"></path>
                <polyline id="Fill-4" points="89.0016923 0.945692308 59.8984615 51.2556923 50.2892308 51.2556923 79.9338462 0.945692308 89.0016923 0.945692308"></polyline>
                <path d="M81.5732308,51.2570769 L81.5732308,51.0909231 C81.5732308,51.0909231 84.1015385,49.7727692 86.0358462,45.3004615 C87.4121538,42.1130769 87.8261538,36.1453846 87.8261538,36.1453846 L87.9936923,36.1453846 L87.9936923,51.2529231 L81.5732308,51.2570769" id="Fill-5"></path>
                <path d="M4.30753846,60.0756923 C6.41353846,60.0756923 7.24292308,61.1556923 7.24292308,62.4461538 C7.24292308,63.6023077 6.57138462,64.8526154 4.24246154,64.8526154 L2.53107692,64.8526154 L2.53107692,69.0521538 L1.83323077,69.0521538 L1.83323077,60.0756923 L4.30753846,60.0756923 L4.30753846,60.0756923 Z M2.53107692,64.2738462 L4.20230769,64.2738462 C5.87353846,64.2738462 6.49246154,63.4707692 6.49246154,62.4572308 C6.49246154,61.4824615 5.86107692,60.6558462 4.28123077,60.6558462 L2.53107692,60.6558462 L2.53107692,64.2738462 L2.53107692,64.2738462 Z" id="Fill-6"></path>
                <path d="M10.8581538,60.0756923 C13.0555385,60.0756923 13.8323077,61.1930769 13.8323077,62.3907692 C13.8323077,63.432 13.2673846,64.1561538 12.1209231,64.5770769 C12.5432308,64.8013846 12.8976923,65.3150769 13.32,65.9450769 L15.3470769,69.0521538 L14.5301538,69.0521538 L12.9641538,66.5916923 C11.8841538,64.8927692 11.5421538,64.7487692 10.4635385,64.7487692 L9.252,64.7487692 L9.252,69.0521538 L8.55415385,69.0521538 L8.55415385,60.0756923 L10.8581538,60.0756923 L10.8581538,60.0756923 Z M9.252,64.1686154 L10.7390769,64.1686154 C12.3189231,64.1686154 13.0818462,63.4846154 13.0818462,62.4046154 C13.0818462,61.3910769 12.3576923,60.6558462 10.7127692,60.6558462 L9.252,60.6558462 L9.252,64.1686154 L9.252,64.1686154 Z" id="Fill-7"></path>
                <path d="M19.9356923,69.1712308 C17.2772308,69.1712308 15.1975385,67.1427692 15.1975385,64.5632308 C15.1975385,61.9836923 17.2772308,59.958 19.9356923,59.958 C22.608,59.958 24.7001538,61.9836923 24.7001538,64.5632308 C24.7001538,67.1427692 22.608,69.1712308 19.9356923,69.1712308 L19.9356923,69.1712308 Z M19.962,60.6018462 C17.7106154,60.6018462 15.948,62.3270769 15.948,64.5632308 C15.948,66.8021538 17.7106154,68.5246154 19.962,68.5246154 C22.212,68.5246154 23.9496923,66.8021538 23.9496923,64.5632308 C23.9496923,62.3270769 22.212,60.6018462 19.962,60.6018462 L19.962,60.6018462 Z" id="Fill-8"></path>
                <path d="M29.2084615,60.0756923 C33.0258462,60.0756923 34.1044615,62.5887692 34.1044615,64.5632308 C34.1044615,66.6429231 32.8804615,69.0521538 29.3261538,69.0521538 L26.0626154,69.0521538 L26.0626154,60.0756923 L29.2084615,60.0756923 L29.2084615,60.0756923 Z M26.7604615,68.4733846 L29.2873846,68.4733846 C31.446,68.4733846 33.354,67.0915385 33.354,64.5632308 C33.354,62.2606154 31.6827692,60.6558462 29.2472308,60.6558462 L26.7604615,60.6558462 L26.7604615,68.4733846 L26.7604615,68.4733846 Z" id="Fill-9"></path>
                <path d="M42.9826154,60.0756923 L42.9826154,64.9716923 C42.9826154,68.0510769 41.0483077,69.1712308 39.2192308,69.1712308 C37.1907692,69.1712308 35.4669231,67.8267692 35.4669231,65.1295385 L35.4669231,60.0756923 L36.1647692,60.0756923 L36.1647692,65.1032308 C36.1647692,67.4598462 37.6130769,68.5246154 39.2192308,68.5246154 C40.7450769,68.5246154 42.2861538,67.5650769 42.2861538,65.0118462 L42.2861538,60.0756923 L42.9826154,60.0756923" id="Fill-10"></path>
                <path d="M52.1903077,61.4713846 C51.0715385,60.8787692 50.058,60.6018462 48.9918462,60.6018462 C46.7556923,60.6018462 45.0706154,62.2993846 45.0706154,64.5770769 C45.0706154,66.8949231 46.7418462,68.5246154 49.0846154,68.5246154 C50.0981538,68.5246154 51.0590769,68.2490769 52.2830769,67.6038462 L52.2830769,68.328 C51.2432308,68.8818462 50.1369231,69.1712308 49.0984615,69.1712308 C46.3596923,69.1712308 44.3201538,67.2092308 44.3201538,64.5770769 C44.3201538,61.8258462 46.5701538,59.958 49.032,59.958 C50.0316923,59.958 51.0978462,60.2058462 52.1903077,60.7070769 L52.1903077,61.4713846" id="Fill-11"></path>
                <polyline id="Fill-12" points="60.0687692 60.6558462 56.7 60.6558462 56.7 69.0521538 56.0021538 69.0521538 56.0021538 60.6558462 52.632 60.6558462 52.632 60.0756923 60.0687692 60.0756923 60.0687692 60.6558462"></polyline>
                <polygon id="Fill-13" points="61.2747692 60.0756923 61.9712308 60.0756923 61.9712308 69.0521538 61.2747692 69.0521538"></polygon>
                <path d="M68.3958462,69.1712308 C65.736,69.1712308 63.6563077,67.1427692 63.6563077,64.5632308 C63.6563077,61.9836923 65.736,59.958 68.3958462,59.958 C71.0667692,59.958 73.1589231,61.9836923 73.1589231,64.5632308 C73.1589231,67.1427692 71.0667692,69.1712308 68.3958462,69.1712308 L68.3958462,69.1712308 Z M68.4207692,60.6018462 C66.1693846,60.6018462 64.4067692,62.3270769 64.4067692,64.5632308 C64.4067692,66.8021538 66.1693846,68.5246154 68.4207692,68.5246154 C70.6721538,68.5246154 72.4084615,66.8021538 72.4084615,64.5632308 C72.4084615,62.3270769 70.6721538,60.6018462 68.4207692,60.6018462 L68.4207692,60.6018462 Z" id="Fill-14"></path>
                <polyline id="Fill-15" points="82.9315385 69.0521538 82.3527692 69.0521538 75.5349231 61.2069231 75.5349231 69.0521538 74.8370769 69.0521538 74.8370769 60.0756923 75.4296923 60.0756923 82.2336923 67.9209231 82.2336923 60.0756923 82.9315385 60.0756923 82.9315385 69.0521538"></polyline>
                <path d="M89.2163077,61.2858462 C88.2955385,60.7610769 87.8206154,60.6018462 87.2016923,60.6018462 C86.1216923,60.6018462 85.3061538,61.3398462 85.3061538,62.3132308 C85.3061538,64.7086154 89.5846154,63.5635385 89.5846154,66.7107692 C89.5846154,68.0926154 88.4395385,69.1712308 86.9787692,69.1712308 C86.2407692,69.1712308 85.4653846,68.9081538 84.6747692,68.382 L84.6747692,67.5650769 C85.6758462,68.2892308 86.2407692,68.5246154 86.9386154,68.5246154 C88.0047692,68.5246154 88.8341538,67.7492308 88.8341538,66.7356923 C88.8341538,64.1810769 84.5556923,65.3012308 84.5556923,62.3395385 C84.5556923,61.0089231 85.7146154,59.958 87.1366154,59.958 C87.8344615,59.958 88.5184615,60.1407692 89.2163077,60.5229231 L89.2163077,61.2858462" id="Fill-16"></path>
            </g>
        </g>
    </g>
</svg>