<?xml version="1.0" encoding="UTF-8" standalone="no"?>
<svg width="90px" height="70px" viewBox="0 0 90 70" version="1.1" xmlns="http://www.w3.org/2000/svg" xmlns:xlink="http://www.w3.org/1999/xlink">
    <!-- Generator: Sketch 44 (41411) - http://www.bohemiancoding.com/sketch -->
    <title>OZ-Logo-White</title>
    <desc>Created with Sketch.</desc>
    <defs></defs>
    <g id="Sketch-02---Refined" stroke="none" stroke-width="1" fill="none" fill-rule="evenodd">
        <g id="OZ-Logo-Copy" transform="translate(-12.000000, -31.000000)" fill="#FFFFFF">
            <path d="M71.3681538,31.9443077 L71.3681538,32.0841538 C71.3681538,32.0841538 69.2538462,33.1863077 67.6393846,36.9261538 C66.4873846,39.5915385 66.1412308,44.5789231 66.1412308,44.5789231 L66.0013846,44.5789231 L66.0013846,31.9484615 L71.3681538,31.9443077 Z M44.0593846,81.9690769 C45.4093846,80.9555385 46.5669231,79.7689231 47.4641538,78.3081538 C50.9963077,72.5855385 51.0669231,61.2801538 51.0669231,57.6773846 C51.0669231,54.0732308 50.9963077,42.9783077 47.4641538,37.0424615 C46.0850769,34.7301538 44.0081538,32.8747692 41.5283077,31.936 L41.5283077,31.7975385 C51.7135385,34.1430769 61.1026154,43.8395385 61.1026154,57.6773846 C61.1026154,69.5338462 52.3892308,78.3538462 44.0593846,82.1075385 L44.0593846,81.9690769 Z M29.7756923,82.1075385 C21.4486154,78.3538462 12.8072308,69.5338462 12.8072308,57.6773846 C12.8072308,43.8395385 22.1963077,34.1430769 32.3801538,31.7975385 L32.3801538,31.936 C29.9030769,32.8747692 27.8233846,34.7301538 26.4443077,37.0424615 C22.9121538,42.9783077 22.8387692,54.0732308 22.8387692,57.6773846 C22.8387692,61.2801538 22.9121538,72.5855385 26.4443077,78.3081538 C27.3304615,79.7509231 28.4478462,80.9596923 29.7756923,81.9690769 L29.7756923,82.1075385 Z M101.001692,31.9456923 L71.8984615,82.2556923 L62.2892308,82.2556923 L91.9338462,31.9456923 L101.001692,31.9456923 Z M93.5732308,82.2570769 L93.5732308,82.0909231 C93.5732308,82.0909231 96.1015385,80.7727692 98.0358462,76.3004615 C99.4121538,73.1130769 99.8261538,67.1453846 99.8261538,67.1453846 L99.9936923,67.1453846 L99.9936923,82.2529231 L93.5732308,82.2570769 Z M16.3075385,91.0756923 C18.4135385,91.0756923 19.2429231,92.1556923 19.2429231,93.4461538 C19.2429231,94.6023077 18.5713846,95.8526154 16.2424615,95.8526154 L14.5310769,95.8526154 L14.5310769,100.052154 L13.8332308,100.052154 L13.8332308,91.0756923 L16.3075385,91.0756923 Z M14.5310769,95.2738462 L16.2023077,95.2738462 C17.8735385,95.2738462 18.4924615,94.4707692 18.4924615,93.4572308 C18.4924615,92.4824615 17.8610769,91.6558462 16.2812308,91.6558462 L14.5310769,91.6558462 L14.5310769,95.2738462 Z M22.8581538,91.0756923 C25.0555385,91.0756923 25.8323077,92.1930769 25.8323077,93.3907692 C25.8323077,94.432 25.2673846,95.1561538 24.1209231,95.5770769 C24.5432308,95.8013846 24.8976923,96.3150769 25.32,96.9450769 L27.3470769,100.052154 L26.5301538,100.052154 L24.9641538,97.5916923 C23.8841538,95.8927692 23.5421538,95.7487692 22.4635385,95.7487692 L21.252,95.7487692 L21.252,100.052154 L20.5541538,100.052154 L20.5541538,91.0756923 L22.8581538,91.0756923 Z M21.252,95.1686154 L22.7390769,95.1686154 C24.3189231,95.1686154 25.0818462,94.4846154 25.0818462,93.4046154 C25.0818462,92.3910769 24.3576923,91.6558462 22.7127692,91.6558462 L21.252,91.6558462 L21.252,95.1686154 Z M31.9356923,100.171231 C29.2772308,100.171231 27.1975385,98.1427692 27.1975385,95.5632308 C27.1975385,92.9836923 29.2772308,90.958 31.9356923,90.958 C34.608,90.958 36.7001538,92.9836923 36.7001538,95.5632308 C36.7001538,98.1427692 34.608,100.171231 31.9356923,100.171231 Z M31.962,91.6018462 C29.7106154,91.6018462 27.948,93.3270769 27.948,95.5632308 C27.948,97.8021538 29.7106154,99.5246154 31.962,99.5246154 C34.212,99.5246154 35.9496923,97.8021538 35.9496923,95.5632308 C35.9496923,93.3270769 34.212,91.6018462 31.962,91.6018462 Z M41.2084615,91.0756923 C45.0258462,91.0756923 46.1044615,93.5887692 46.1044615,95.5632308 C46.1044615,97.6429231 44.8804615,100.052154 41.3261538,100.052154 L38.0626154,100.052154 L38.0626154,91.0756923 L41.2084615,91.0756923 Z M38.7604615,99.4733846 L41.2873846,99.4733846 C43.446,99.4733846 45.354,98.0915385 45.354,95.5632308 C45.354,93.2606154 43.6827692,91.6558462 41.2472308,91.6558462 L38.7604615,91.6558462 L38.7604615,99.4733846 Z M54.9826154,91.0756923 L54.9826154,95.9716923 C54.9826154,99.0510769 53.0483077,100.171231 51.2192308,100.171231 C49.1907692,100.171231 47.4669231,98.8267692 47.4669231,96.1295385 L47.4669231,91.0756923 L48.1647692,91.0756923 L48.1647692,96.1032308 C48.1647692,98.4598462 49.6130769,99.5246154 51.2192308,99.5246154 C52.7450769,99.5246154 54.2861538,98.5650769 54.2861538,96.0118462 L54.2861538,91.0756923 L54.9826154,91.0756923 Z M64.1903077,92.4713846 C63.0715385,91.8787692 62.058,91.6018462 60.9918462,91.6018462 C58.7556923,91.6018462 57.0706154,93.2993846 57.0706154,95.5770769 C57.0706154,97.8949231 58.7418462,99.5246154 61.0846154,99.5246154 C62.0981538,99.5246154 63.0590769,99.2490769 64.2830769,98.6038462 L64.2830769,99.328 C63.2432308,99.8818462 62.1369231,100.171231 61.0984615,100.171231 C58.3596923,100.171231 56.3201538,98.2092308 56.3201538,95.5770769 C56.3201538,92.8258462 58.5701538,90.958 61.032,90.958 C62.0316923,90.958 63.0978462,91.2058462 64.1903077,91.7070769 L64.1903077,92.4713846 Z M72.0687692,91.6558462 L68.7,91.6558462 L68.7,100.052154 L68.0021538,100.052154 L68.0021538,91.6558462 L64.632,91.6558462 L64.632,91.0756923 L72.0687692,91.0756923 L72.0687692,91.6558462 Z M73.2747692,91.0756923 L73.9712308,91.0756923 L73.9712308,100.052154 L73.2747692,100.052154 L73.2747692,91.0756923 Z M80.3958462,100.171231 C77.736,100.171231 75.6563077,98.1427692 75.6563077,95.5632308 C75.6563077,92.9836923 77.736,90.958 80.3958462,90.958 C83.0667692,90.958 85.1589231,92.9836923 85.1589231,95.5632308 C85.1589231,98.1427692 83.0667692,100.171231 80.3958462,100.171231 Z M80.4207692,91.6018462 C78.1693846,91.6018462 76.4067692,93.3270769 76.4067692,95.5632308 C76.4067692,97.8021538 78.1693846,99.5246154 80.4207692,99.5246154 C82.6721538,99.5246154 84.4084615,97.8021538 84.4084615,95.5632308 C84.4084615,93.3270769 82.6721538,91.6018462 80.4207692,91.6018462 Z M94.9315385,100.052154 L94.3527692,100.052154 L87.5349231,92.2069231 L87.5349231,100.052154 L86.8370769,100.052154 L86.8370769,91.0756923 L87.4296923,91.0756923 L94.2336923,98.9209231 L94.2336923,91.0756923 L94.9315385,91.0756923 L94.9315385,100.052154 Z M101.216308,92.2858462 C100.295538,91.7610769 99.8206154,91.6018462 99.2016923,91.6018462 C98.1216923,91.6018462 97.3061538,92.3398462 97.3061538,93.3132308 C97.3061538,95.7086154 101.584615,94.5635385 101.584615,97.7107692 C101.584615,99.0926154 100.439538,100.171231 98.9787692,100.171231 C98.2407692,100.171231 97.4653846,99.9081538 96.6747692,99.382 L96.6747692,98.5650769 C97.6758462,99.2892308 98.2407692,99.5246154 98.9386154,99.5246154 C100.004769,99.5246154 100.834154,98.7492308 100.834154,97.7356923 C100.834154,95.1810769 96.5556923,96.3012308 96.5556923,93.3395385 C96.5556923,92.0089231 97.7146154,90.958 99.1366154,90.958 C99.8344615,90.958 100.518462,91.1407692 101.216308,91.5229231 L101.216308,92.2858462 Z" id="OZ-Logo-White"></path>
        </g>
    </g>
</svg>